<svg width="329" height="256" viewBox="0 0 329 256" fill="none" xmlns="http://www.w3.org/2000/svg">
<g clip-path="url(#clip0)">
<path d="M187.334 125.176C194.737 125.176 200.739 119.163 200.739 111.746C200.739 104.328 194.737 98.3154 187.334 98.3154C179.931 98.3154 173.93 104.328 173.93 111.746C173.93 119.163 179.931 125.176 187.334 125.176Z" fill="#E6E6E6"/>
<path d="M220.186 129.005L206.178 114.97C207.252 113.296 207.98 111.424 208.318 109.464C208.656 107.503 208.599 105.495 208.148 103.558C207.698 101.62 206.864 99.793 205.695 98.1844C204.527 96.5758 203.049 95.2184 201.347 94.1928C198.144 92.2754 194.338 91.6333 190.685 92.3937C187.031 93.1541 183.796 95.2616 181.619 98.2987C179.617 101.112 178.655 104.537 178.899 107.983C179.144 111.43 180.579 114.684 182.958 117.186C185.337 119.687 188.512 121.28 191.937 121.69C195.361 122.101 198.821 121.303 201.722 119.434L215.73 133.469C216.321 134.061 217.123 134.393 217.958 134.393C218.793 134.393 219.594 134.06 220.185 133.468C220.776 132.876 221.108 132.074 221.108 131.237C221.108 130.4 220.777 129.597 220.186 129.005ZM201.199 114.446C199.464 116.185 197.18 117.267 194.737 117.508C192.294 117.749 189.843 117.134 187.802 115.768C185.761 114.402 184.256 112.368 183.544 110.015C182.831 107.661 182.955 105.133 183.894 102.861C184.834 100.589 186.53 98.7132 188.695 97.5538C190.86 96.3944 193.359 96.023 195.767 96.5028C198.174 96.9826 200.341 98.2839 201.898 100.185C203.456 102.086 204.307 104.47 204.307 106.929C204.308 108.325 204.035 109.708 203.502 110.998C202.968 112.288 202.186 113.46 201.199 114.446Z" fill="#3F3D56"/>
<path d="M321.729 149.707C357.552 189.401 253.705 246.606 169.794 246.606C85.8829 246.606 27.8296 202.282 17.8595 149.707C-6.31436 22.2306 223.827 -58.7928 169.794 52.8087C91.0347 215.481 293.516 118.447 321.729 149.707Z" fill="#E6E6E6"/>
<path d="M305.655 159.102C341.479 198.795 237.632 256 153.721 256C69.8095 256 11.7561 211.677 1.78606 159.102C-22.3878 31.6249 207.754 -49.3985 153.721 62.203C74.9612 224.875 277.443 127.842 305.655 159.102Z" fill="#3F3D56"/>
<path d="M50.0936 66.0371C24.9562 64.9282 5.4658 59.4954 5.72185 53.6687C5.87537 50.1755 12.9895 47.3664 25.24 45.9622C25.2839 45.9569 25.3283 45.9603 25.3708 45.9722C25.4134 45.9842 25.4531 46.0045 25.4878 46.0319C25.5224 46.0593 25.5513 46.0933 25.5728 46.132C25.5943 46.1706 25.608 46.2132 25.613 46.2571C25.618 46.3011 25.6143 46.3456 25.6021 46.3881C25.5898 46.4307 25.5693 46.4703 25.5418 46.5049C25.5142 46.5394 25.48 46.5682 25.4413 46.5894C25.4026 46.6107 25.36 46.6241 25.3161 46.6288C13.7761 47.9518 6.52443 50.6606 6.39093 53.6982C6.15937 58.9673 26.1862 64.3108 50.1231 65.3668C74.0599 66.4228 94.478 62.8635 94.7096 57.5945C94.8436 54.5441 87.8124 51.1977 76.3597 48.8616C76.3165 48.8529 76.2755 48.8358 76.2389 48.8112C76.2023 48.7866 76.1709 48.755 76.1466 48.7182C76.1222 48.6814 76.1053 48.6402 76.0969 48.5969C76.0885 48.5535 76.0887 48.509 76.0975 48.4657C76.1062 48.4224 76.1235 48.3813 76.1481 48.3448C76.1728 48.3082 76.2044 48.2769 76.2412 48.2525C76.278 48.2282 76.3192 48.2114 76.3625 48.2031C76.4057 48.1948 76.4502 48.1951 76.4934 48.2041C88.6493 50.6837 95.5327 54.1171 95.3786 57.624C95.1226 63.4506 75.231 67.1461 50.0936 66.0371Z" fill="#CBCBCB"/>
<path d="M27.7679 67.013C29.8708 71.0155 32.9859 74.3945 36.8016 76.812C40.6172 79.2294 44.9995 80.6005 49.5101 80.7881C54.0207 80.9757 58.5014 79.9732 62.5039 77.8808C66.5063 75.7885 69.8902 72.6798 72.3169 68.8656C57.4446 69.0664 42.5725 68.448 27.7679 67.013Z" fill="#CBCBCB"/>
<path d="M75.0976 61.8081C76.3631 58.0047 76.7278 53.9583 76.1627 49.9893C75.5976 46.0203 74.1182 42.2375 71.8417 38.9403C69.5651 35.6432 66.5539 32.9222 63.0463 30.9927C59.5387 29.0632 55.631 27.9782 51.6325 27.8234C47.634 27.6687 43.6544 28.4486 40.0087 30.1013C36.3631 31.7541 33.1514 34.2343 30.6278 37.3457C28.1043 40.4571 26.3382 44.1143 25.4692 48.0279C24.6003 51.9415 24.6525 56.0039 25.6215 59.8938C41.9615 62.673 58.5923 63.3165 75.0976 61.8081Z" fill="#CBCBCB"/>
<path d="M56.5364 44.4891C58.2008 44.4891 59.5501 43.1371 59.5501 41.4695C59.5501 39.8018 58.2008 38.4499 56.5364 38.4499C54.8719 38.4499 53.5226 39.8018 53.5226 41.4695C53.5226 43.1371 54.8719 44.4891 56.5364 44.4891Z" fill="white"/>
<path d="M41.0254 56.2288C43.7995 56.2288 46.0484 53.9756 46.0484 51.1961C46.0484 48.4167 43.7995 46.1635 41.0254 46.1635C38.2513 46.1635 36.0024 48.4167 36.0024 51.1961C36.0024 53.9756 38.2513 56.2288 41.0254 56.2288Z" fill="white"/>
<path d="M116.836 51.299C118.685 51.299 120.184 49.7969 120.184 47.944C120.184 46.091 118.685 44.5889 116.836 44.5889C114.986 44.5889 113.487 46.091 113.487 47.944C113.487 49.7969 114.986 51.299 116.836 51.299Z" fill="#CBCBCB"/>
<path d="M41.1564 153.966C42.2661 153.966 43.1656 153.064 43.1656 151.953C43.1656 150.841 42.2661 149.939 41.1564 149.939C40.0468 149.939 39.1472 150.841 39.1472 151.953C39.1472 153.064 40.0468 153.966 41.1564 153.966Z" fill="#E6E6E6"/>
<path d="M181.799 223.081C182.909 223.081 183.809 222.18 183.809 221.068C183.809 219.956 182.909 219.055 181.799 219.055C180.69 219.055 179.79 219.956 179.79 221.068C179.79 222.18 180.69 223.081 181.799 223.081Z" fill="#E6E6E6"/>
<path d="M50.8675 115.046C51.4224 115.046 51.8721 114.596 51.8721 114.04C51.8721 113.484 51.4224 113.033 50.8675 113.033C50.3127 113.033 49.8629 113.484 49.8629 114.04C49.8629 114.596 50.3127 115.046 50.8675 115.046Z" fill="#E6E6E6"/>
<path d="M133.914 190.201C134.469 190.201 134.919 189.75 134.919 189.194C134.919 188.638 134.469 188.188 133.914 188.188C133.359 188.188 132.909 188.638 132.909 189.194C132.909 189.75 133.359 190.201 133.914 190.201Z" fill="#E6E6E6"/>
<path d="M284.938 180.471C285.493 180.471 285.942 180.02 285.942 179.464C285.942 178.909 285.493 178.458 284.938 178.458C284.383 178.458 283.933 178.909 283.933 179.464C283.933 180.02 284.383 180.471 284.938 180.471Z" fill="#E6E6E6"/>
<path d="M237.722 210.332C238.277 210.332 238.726 209.881 238.726 209.325C238.726 208.769 238.277 208.318 237.722 208.318C237.167 208.318 236.717 208.769 236.717 209.325C236.717 209.881 237.167 210.332 237.722 210.332Z" fill="#E6E6E6"/>
<path d="M188.497 174.096C189.052 174.096 189.501 173.646 189.501 173.09C189.501 172.534 189.052 172.083 188.497 172.083C187.942 172.083 187.492 172.534 187.492 173.09C187.492 173.646 187.942 174.096 188.497 174.096Z" fill="#E6E6E6"/>
<path d="M124.873 74.7849C125.427 74.7849 125.877 74.3343 125.877 73.7784C125.877 73.2224 125.427 72.7718 124.873 72.7718C124.318 72.7718 123.868 73.2224 123.868 73.7784C123.868 74.3343 124.318 74.7849 124.873 74.7849Z" fill="#E6E6E6"/>
<path d="M132.909 25.1292C133.464 25.1292 133.914 24.6786 133.914 24.1226C133.914 23.5667 133.464 23.1161 132.909 23.1161C132.354 23.1161 131.905 23.5667 131.905 24.1226C131.905 24.6786 132.354 25.1292 132.909 25.1292Z" fill="#E6E6E6"/>
<path d="M128.221 234.153C128.776 234.153 129.226 233.702 129.226 233.146C129.226 232.59 128.776 232.14 128.221 232.14C127.666 232.14 127.217 232.59 127.217 233.146C127.217 233.702 127.666 234.153 128.221 234.153Z" fill="#E6E6E6"/>
<path d="M78.6612 213.016C79.2161 213.016 79.6658 212.565 79.6658 212.009C79.6658 211.453 79.2161 211.003 78.6612 211.003C78.1064 211.003 77.6566 211.453 77.6566 212.009C77.6566 212.565 78.1064 213.016 78.6612 213.016Z" fill="#E6E6E6"/>
<path d="M235.713 176.78C236.267 176.78 236.717 176.33 236.717 175.774C236.717 175.218 236.267 174.767 235.713 174.767C235.158 174.767 234.708 175.218 234.708 175.774C234.708 176.33 235.158 176.78 235.713 176.78Z" fill="#E6E6E6"/>
<path d="M49.685 78.4421C51.3495 78.4421 52.6988 77.0902 52.6988 75.4225C52.6988 73.7549 51.3495 72.4029 49.685 72.4029C48.0206 72.4029 46.6713 73.7549 46.6713 75.4225C46.6713 77.0902 48.0206 78.4421 49.685 78.4421Z" fill="white"/>
<path d="M117.84 121.757C117.84 130.775 103.924 151.79 99.8567 157.739C99.7339 157.919 99.5693 158.066 99.377 158.168C99.1847 158.269 98.9706 158.322 98.7532 158.322C98.5357 158.322 98.3216 158.269 98.1293 158.168C97.937 158.066 97.7724 157.919 97.6497 157.739C93.5827 151.79 79.6659 130.775 79.6659 121.757C79.6659 119.245 80.1596 116.758 81.1188 114.438C82.0781 112.118 83.484 110.01 85.2564 108.234C87.0288 106.458 89.133 105.049 91.4488 104.088C93.7646 103.127 96.2466 102.632 98.7532 102.632C101.26 102.632 103.742 103.127 106.058 104.088C108.373 105.049 110.477 106.458 112.25 108.234C114.022 110.01 115.428 112.118 116.388 114.438C117.347 116.758 117.84 119.245 117.84 121.757Z" fill="white"/>
<path d="M98.7532 130.144C104.116 130.144 108.464 125.788 108.464 120.414C108.464 115.041 104.116 110.685 98.7532 110.685C93.3899 110.685 89.0421 115.041 89.0421 120.414C89.0421 125.788 93.3899 130.144 98.7532 130.144Z" fill="#CBCBCB"/>
<path d="M98.5856 168.728C104.781 168.728 109.804 167.752 109.804 166.547C109.804 165.343 104.781 164.366 98.5856 164.366C92.3901 164.366 87.3677 165.343 87.3677 166.547C87.3677 167.752 92.3901 168.728 98.5856 168.728Z" fill="white"/>
<path d="M273.535 106.666C273.45 106.831 273.378 107.002 273.32 107.178L257.32 111.633L254.436 108.806L249.609 112.608L254.228 118.11C254.601 118.555 255.108 118.866 255.673 118.997C256.238 119.128 256.83 119.073 257.36 118.838L274.644 111.193C275.231 111.601 275.927 111.82 276.641 111.822C277.355 111.824 278.052 111.607 278.64 111.202C279.229 110.797 279.68 110.222 279.934 109.554C280.188 108.885 280.233 108.155 280.062 107.461C279.892 106.766 279.515 106.14 278.981 105.665C278.447 105.191 277.781 104.89 277.073 104.804C276.364 104.718 275.646 104.85 275.014 105.182C274.382 105.515 273.866 106.032 273.535 106.666H273.535Z" fill="#FFB8B8"/>
<path d="M256.756 111.894L250.75 116.578C250.579 116.711 250.382 116.806 250.171 116.856C249.96 116.906 249.741 116.909 249.529 116.867C249.316 116.824 249.116 116.736 248.94 116.609C248.765 116.482 248.619 116.318 248.513 116.129L244.78 109.51C244.104 108.63 243.804 107.518 243.946 106.417C244.088 105.316 244.659 104.316 245.536 103.637C246.412 102.957 247.522 102.654 248.621 102.793C249.72 102.932 250.72 103.503 251.4 104.379L256.871 109.611C257.028 109.761 257.15 109.943 257.23 110.144C257.31 110.346 257.346 110.562 257.335 110.779C257.324 110.996 257.267 111.207 257.167 111.4C257.067 111.592 256.927 111.761 256.756 111.894V111.894Z" fill="#CBCBCB"/>
<path d="M275.069 104.45L281.16 107.196C281.415 107.311 281.614 107.523 281.713 107.785C281.812 108.047 281.804 108.337 281.689 108.593L280.968 110.199C281.053 110.237 281.119 110.308 281.152 110.395C281.185 110.482 281.182 110.579 281.144 110.664L280.856 111.307C280.817 111.392 280.747 111.458 280.66 111.491C280.573 111.524 280.476 111.521 280.391 111.483L280.102 112.126C280.187 112.164 280.253 112.235 280.286 112.322C280.32 112.409 280.317 112.506 280.279 112.591L279.99 113.234C279.952 113.319 279.881 113.385 279.794 113.418C279.707 113.451 279.611 113.448 279.526 113.41L275.632 122.082C275.517 122.338 275.306 122.537 275.044 122.636C274.783 122.736 274.492 122.727 274.237 122.612L268.147 119.867C267.892 119.752 267.693 119.54 267.594 119.278C267.494 119.016 267.503 118.725 267.618 118.47L273.675 104.98C273.79 104.725 274.001 104.525 274.263 104.426C274.524 104.327 274.814 104.335 275.069 104.45Z" fill="#3F3D56"/>
<path d="M269.253 119.012L274.139 121.217C274.383 121.327 274.662 121.335 274.913 121.24C275.163 121.145 275.367 120.954 275.478 120.71L277.735 115.681L278.518 113.937L280.561 109.387C280.67 109.142 280.678 108.864 280.583 108.613C280.488 108.363 280.298 108.16 280.054 108.049L278.518 107.355L275.165 105.844C274.92 105.735 274.642 105.727 274.392 105.823C274.141 105.918 273.939 106.11 273.829 106.355L271.854 110.754L269.604 115.762L268.747 117.674C268.637 117.919 268.629 118.197 268.724 118.448C268.819 118.699 269.009 118.902 269.253 119.012Z" fill="#F2F2F2"/>
<path d="M259.043 181.325L263.149 181.324L265.102 165.459L259.043 165.459L259.043 181.325Z" fill="#FFB8B8"/>
<path d="M257.996 179.982L266.081 179.982H266.082C266.758 179.982 267.428 180.115 268.053 180.374C268.678 180.634 269.246 181.014 269.725 181.494C270.203 181.973 270.583 182.542 270.842 183.168C271.101 183.795 271.234 184.466 271.234 185.144V185.312L257.997 185.312L257.996 179.982Z" fill="#2F2E41"/>
<path d="M269.759 180.318L273.864 180.318L275.818 164.452L269.758 164.453L269.759 180.318Z" fill="#FFB8B8"/>
<path d="M268.712 178.975L276.797 178.975H276.797C277.474 178.975 278.144 179.108 278.769 179.368C279.394 179.627 279.962 180.008 280.441 180.487C280.919 180.966 281.299 181.535 281.557 182.162C281.816 182.788 281.95 183.459 281.95 184.137V184.305L268.712 184.306L268.712 178.975Z" fill="#2F2E41"/>
<path d="M240.629 144.095C241.503 146.693 243.162 148.954 245.376 150.565C247.59 152.177 250.249 153.059 252.985 153.09L253.193 153.093C255.312 153.154 257.8 152.469 260.241 151.486C265.063 149.544 269.695 146.433 270.924 145.578L268.841 165.638L267.997 173.771C267.976 173.981 267.999 174.194 268.064 174.395C268.13 174.596 268.237 174.781 268.378 174.938C268.519 175.095 268.692 175.221 268.885 175.307C269.077 175.393 269.286 175.438 269.497 175.438H274.698C275.031 175.439 275.355 175.328 275.619 175.124C275.883 174.92 276.073 174.634 276.158 174.311L284.743 141.548C285.001 140.568 285.022 139.54 284.804 138.549C284.586 137.559 284.136 136.635 283.491 135.854C282.846 135.072 282.025 134.456 281.095 134.056C280.165 133.656 279.153 133.484 278.143 133.553L260.308 134.778L261.554 129.785L245.635 128.725L245.588 128.759C245.206 129.037 244.834 129.329 244.479 129.634C243.592 130.386 242.805 131.25 242.139 132.204C240.946 133.916 240.186 135.893 239.923 137.963C239.66 140.034 239.902 142.138 240.629 144.095Z" fill="#2F2E41"/>
<path d="M240.629 144.095C241.503 146.693 243.162 148.954 245.376 150.565C247.59 152.177 250.249 153.059 252.985 153.09C255.602 151.763 258.126 150.262 260.543 148.597L260.241 151.486L257.616 176.79C257.595 177.001 257.618 177.213 257.683 177.414C257.749 177.615 257.856 177.8 257.997 177.957C258.139 178.115 258.311 178.24 258.504 178.326C258.697 178.413 258.905 178.457 259.116 178.458H264.317C264.65 178.458 264.974 178.348 265.239 178.144C265.503 177.94 265.692 177.654 265.777 177.331L268.841 165.638L274.363 144.568C274.62 143.587 274.641 142.559 274.423 141.569C274.205 140.579 273.755 139.655 273.11 138.873C272.465 138.092 271.644 137.476 270.714 137.076C269.784 136.676 268.772 136.503 267.763 136.573L249.928 137.797L251.173 132.805L242.139 132.204C240.946 133.916 240.186 135.893 239.923 137.963C239.66 140.034 239.902 142.138 240.629 144.095Z" fill="#2F2E41"/>
<path d="M244.457 130.792L244.337 130.777L241.559 117.093C241.535 116.975 239.265 105.172 246.226 99.0012L246.347 98.1567C246.378 97.9406 246.456 97.7337 246.574 97.5505C246.693 97.3673 246.85 97.212 247.034 97.0953C247.218 96.9787 247.425 96.9034 247.641 96.8748C247.857 96.8462 248.077 96.8648 248.285 96.9295L254.843 98.9676C255.215 99.0822 255.527 99.3363 255.716 99.6766C255.904 100.017 255.954 100.417 255.854 100.793L255.217 103.223C256.101 104.263 266.507 116.815 262.882 126.486L261.259 132.844L244.457 130.792Z" fill="#CBCBCB"/>
<path d="M271.688 120.112C271.531 120.211 271.382 120.322 271.243 120.444L255.204 116.13L254.155 112.227L248.069 113.043L249.255 120.133C249.351 120.706 249.63 121.233 250.049 121.633C250.469 122.034 251.007 122.287 251.583 122.355L270.346 124.576C270.644 125.226 271.132 125.77 271.746 126.134C272.36 126.499 273.07 126.668 273.783 126.619C274.495 126.57 275.175 126.304 275.733 125.858C276.291 125.412 276.7 124.806 276.906 124.121C277.112 123.437 277.104 122.705 276.885 122.025C276.666 121.344 276.245 120.746 275.679 120.311C275.113 119.876 274.427 119.624 273.714 119.588C273.002 119.552 272.295 119.735 271.688 120.112H271.688Z" fill="#FFB8B8"/>
<path d="M254.586 116.068L247.038 117.042C246.823 117.07 246.605 117.051 246.398 116.987C246.191 116.922 246 116.814 245.839 116.669C245.678 116.524 245.55 116.346 245.463 116.147C245.377 115.948 245.334 115.733 245.338 115.516L245.482 107.915C245.347 106.814 245.653 105.703 246.334 104.827C247.015 103.951 248.014 103.381 249.113 103.243C250.213 103.104 251.322 103.408 252.198 104.088C253.074 104.767 253.645 105.767 253.787 106.868L255.843 114.16C255.902 114.369 255.916 114.588 255.882 114.803C255.849 115.017 255.77 115.222 255.651 115.403C255.531 115.584 255.374 115.737 255.191 115.852C255.007 115.967 254.801 116.04 254.586 116.068Z" fill="#CBCBCB"/>
<path d="M252.461 95.0721C257.004 95.0721 260.686 91.3827 260.686 86.8316C260.686 82.2805 257.004 78.5911 252.461 78.5911C247.919 78.5911 244.237 82.2805 244.237 86.8316C244.237 91.3827 247.919 95.0721 252.461 95.0721Z" fill="#FFB8B8"/>
<path d="M252.028 87.5198L250.999 85.6411C249.048 93.6035 252.494 100.193 252.494 100.193L239.122 93.9524L239.249 91.7381L237.926 93.2425L236.025 92.1928L235.773 90.7566L234.338 91.1128L239.577 81.5885C244.661 72.5253 252.052 75.9855 252.052 75.9855C263.811 75.4254 262.375 87.0491 262.375 87.0491L252.028 87.5198Z" fill="#2F2E41"/>
<path d="M158.404 148.929C160.301 147.711 157.994 140.717 153.253 133.307C148.513 125.897 143.132 120.878 141.236 122.096C139.339 123.314 141.645 130.308 146.386 137.718C151.127 145.128 156.508 150.147 158.404 148.929Z" fill="#3F3D56"/>
</g>
<defs>
<clipPath id="clip0">
<rect width="329" height="256" fill="white"/>
</clipPath>
</defs>
</svg>
