<svg width="321" height="259" viewBox="0 0 321 259" fill="none" xmlns="http://www.w3.org/2000/svg">
<path d="M211.218 145.009C204.446 149.068 192.381 154.152 180.052 148.927L172.083 145.549L188.053 127.659C175.309 113.618 168.258 95.3353 168.278 76.3793C168.297 57.4233 175.385 39.1548 188.158 25.1397C200.932 11.1245 218.473 2.36866 237.359 0.581078C256.245 -1.2065 275.12 4.10254 290.299 15.4719C305.479 26.8413 315.873 43.455 319.454 62.0702C323.035 80.6854 319.546 99.966 309.666 116.149C299.787 132.331 284.227 144.254 266.024 149.591C247.821 154.927 228.281 153.294 211.218 145.009V145.009ZM180.618 76.3365C180.583 85.0748 182.357 93.7259 185.83 101.746C189.304 109.765 194.4 116.98 200.799 122.936L205.204 127.073L195.154 138.33C200.389 137.268 204.948 134.439 207.26 132.795L210.432 130.54L213.844 132.413C223.275 137.572 233.854 140.276 244.605 140.275C279.888 140.275 308.592 111.592 308.592 76.3366C308.592 41.0808 279.888 12.3981 244.605 12.3981C209.323 12.3981 180.618 41.0808 180.618 76.3366V76.3365Z" fill="#3F3D56"/>
<path d="M174.414 76.3366C174.414 37.6007 205.84 6.19904 244.605 6.19904C283.371 6.19904 314.796 37.6007 314.796 76.3366C314.796 115.072 283.371 146.474 244.605 146.474C232.807 146.491 221.197 143.523 210.857 137.846C206.005 141.296 194.168 148.176 182.475 143.22L196.55 127.454C189.553 120.903 183.978 112.985 180.17 104.192C176.362 95.3989 174.403 85.9177 174.414 76.3366Z" fill="#CBCBCB"/>
<path opacity="0.1" d="M302.839 76.4886C302.839 39.8421 274.71 9.76552 238.852 6.62681C240.896 6.44786 242.964 6.35103 245.055 6.35103C283.821 6.35103 315.246 37.7527 315.246 76.4886C315.246 115.224 283.821 146.626 245.055 146.626C242.967 146.626 240.903 146.528 238.861 146.349C274.716 143.206 302.839 113.132 302.839 76.4886Z" fill="black"/>
<path d="M82.8575 242.445C65.319 242.454 48.3105 236.438 34.6825 225.407C21.0546 214.375 11.6353 198.998 8.00322 181.853C4.37118 164.708 6.7471 146.836 14.7328 131.233C22.7185 115.63 35.8287 103.243 51.8663 96.1497C67.9039 89.0561 85.8942 87.6861 102.822 92.2695C119.75 96.8529 134.588 107.111 144.847 121.325C155.107 135.539 160.166 152.844 159.176 170.341C158.186 187.839 151.207 204.464 139.409 217.432L155.38 235.321L147.41 238.699C135.081 243.925 123.017 238.84 116.245 234.782C105.838 239.823 94.423 242.443 82.8575 242.445ZM82.8575 102.17C47.5749 102.17 18.8702 130.853 18.8702 166.109C18.8702 201.365 47.5749 230.047 82.8575 230.047C93.6091 230.048 104.188 227.345 113.619 222.185L117.03 220.312L120.202 222.567C122.514 224.211 127.074 227.041 132.308 228.102L122.259 216.845L126.664 212.708C133.063 206.752 138.159 199.538 141.632 191.518C145.105 183.498 146.88 174.847 146.845 166.109C146.845 130.853 118.14 102.17 82.8575 102.17Z" fill="#3F3D56"/>
<path d="M153.049 166.109C153.049 127.373 121.623 95.9712 82.8575 95.9712C44.092 95.9712 12.6664 127.373 12.6664 166.109C12.6664 204.845 44.0921 236.246 82.8575 236.246C94.6555 236.264 106.266 233.295 116.606 227.618C121.458 231.068 133.295 237.949 144.988 232.992L130.912 217.226C137.909 210.675 143.485 202.757 147.293 193.964C151.1 185.171 153.06 175.69 153.049 166.109Z" fill="#CBCBCB"/>
<path opacity="0.1" d="M25.074 165.755C25.074 129.108 53.2023 99.0315 89.0613 95.8928C87.0167 95.7138 84.9486 95.617 82.8575 95.617C44.092 95.617 12.6664 127.019 12.6664 165.755C12.6664 204.49 44.092 235.892 82.8575 235.892C84.9454 235.892 87.0099 235.794 89.0514 235.615C53.1972 232.472 25.074 202.398 25.074 165.755Z" fill="black"/>
<path d="M261.083 54.0539C256.491 46.3 247.405 45.9386 247.405 45.9386C247.405 45.9386 238.551 44.8073 232.872 56.6166C227.578 67.624 220.272 78.2518 231.695 80.8285L233.759 74.411L235.037 81.3063C236.663 81.4232 238.295 81.451 239.925 81.3897C252.158 80.995 263.809 81.5052 263.434 77.1185C262.936 71.287 265.502 61.5148 261.083 54.0539Z" fill="#2F2E41"/>
<path d="M231.043 121.959C230.908 122.812 230.712 123.654 230.457 124.479C230.17 125.287 229.726 126.033 229.463 126.849C228.626 129.45 229.787 132.349 231.641 134.356C233.25 136.09 235.326 137.322 237.619 137.903C239.307 138.264 241.029 138.445 242.755 138.442C247.529 138.604 252.426 138.749 256.95 137.216C258.379 136.719 259.76 136.093 261.074 135.343C261.489 135.146 261.855 134.858 262.144 134.502C262.447 133.979 262.582 133.376 262.53 132.774C262.52 130.752 262.11 128.74 262.207 126.72C262.261 125.601 262.471 124.483 262.368 123.368C262.225 122.101 261.694 120.909 260.847 119.955C260 119.002 258.88 118.333 257.638 118.04C256.354 117.765 255.023 117.915 253.717 118.041C250.326 118.366 246.92 118.518 243.513 118.496C240.032 118.474 236.572 117.943 233.109 117.888C232.084 117.871 232.105 118.187 231.779 119.178C231.478 120.089 231.233 121.018 231.043 121.959Z" fill="#2F2E41"/>
<path d="M240.922 72.0227C240.755 72.8979 240.574 73.8052 240.047 74.5244C239.442 75.352 238.454 75.8248 237.803 76.6167C236.822 77.8088 236.766 79.4863 236.762 81.0294C236.758 82.4509 236.787 83.9672 237.58 85.1472C238.145 85.8802 238.846 86.4976 239.644 86.9655C242.62 88.969 245.835 91.0085 249.422 91.0745C250.908 91.1019 252.502 90.7184 253.48 89.5997C253.902 89.0742 254.234 88.4823 254.462 87.8482C255.379 85.5889 255.935 83.1996 256.11 80.7678C256.242 79.6246 256.135 78.4664 255.796 77.3665C255.36 76.1525 254.479 75.1535 253.897 74.0025C253.208 72.6337 252.957 71.087 253.175 69.5708C253.204 69.464 253.196 69.3505 253.15 69.2496C253.102 69.1956 253.042 69.1534 252.976 69.1263C252.909 69.0992 252.836 69.0879 252.764 69.0934L245.652 68.5817C244.989 68.5488 244.33 68.4734 243.677 68.356C243.293 68.2781 242.281 67.7339 241.915 67.8786C241.238 68.1465 241.061 71.2969 240.922 72.0227Z" fill="#A0616A"/>
<path opacity="0.1" d="M240.922 72.2445C240.755 73.1198 240.574 74.027 240.047 74.7463C239.442 75.5738 238.454 76.0466 237.803 76.8386C236.822 78.0307 236.766 79.7081 236.762 81.2513C236.758 82.6728 236.787 84.189 237.58 85.369C238.145 86.1021 238.846 86.7195 239.644 87.1874C242.62 89.1909 245.835 91.2303 249.422 91.2964C250.908 91.3238 252.502 90.9402 253.48 89.8215C253.902 89.2961 254.234 88.7042 254.462 88.0701C255.379 85.8108 255.935 83.4215 256.11 80.9897C256.242 79.8464 256.135 78.6882 255.796 77.5884C255.36 76.3743 254.479 75.3754 253.897 74.2243C253.208 72.8556 252.957 71.3088 253.175 69.7926C253.204 69.6859 253.195 69.5724 253.15 69.4715C253.102 69.4175 253.042 69.3753 252.976 69.3482C252.909 69.3211 252.836 69.3098 252.764 69.3153L245.652 68.8036C244.989 68.7707 244.33 68.6953 243.677 68.5779C243.293 68.5 242.281 67.9558 241.915 68.1005C241.238 68.3684 241.061 71.5187 240.922 72.2445Z" fill="black"/>
<path d="M247.724 72.9757C253.487 72.9757 258.159 68.3073 258.159 62.5485C258.159 56.7897 253.487 52.1213 247.724 52.1213C241.961 52.1213 237.289 56.7897 237.289 62.5485C237.289 68.3073 241.961 72.9757 247.724 72.9757Z" fill="#A0616A"/>
<path d="M242.386 85.9029C242.901 86.4994 243.522 86.9956 244.218 87.3664C244.944 87.666 245.723 87.8143 246.508 87.802C248.389 87.8549 250.428 87.5105 251.737 86.1592C253.424 84.4173 253.368 81.6078 254.69 79.5756C254.797 79.3913 254.942 79.2325 255.116 79.11C255.338 78.9893 255.589 78.9318 255.841 78.9435C257.511 78.9279 258.965 80.0101 260.278 81.0414C260.896 81.4663 261.426 82.006 261.84 82.6312C262.1 83.1372 262.277 83.6812 262.367 84.2428C263.018 87.4205 263.229 90.6695 263.438 93.9064C263.554 95.6943 263.67 97.4839 263.661 99.2755C263.633 105.178 262.26 110.982 260.895 116.725C260.719 117.465 260.478 118.292 259.804 118.646C259.504 118.781 259.182 118.86 258.853 118.878C254.943 119.337 251.024 119.797 247.087 119.857C245.55 119.881 244.015 119.844 242.48 119.746C242.215 119.742 241.953 119.697 241.704 119.611C241.364 119.448 241.073 119.201 240.857 118.893C238.728 116.211 238.602 112.504 238.616 109.081C238.649 100.711 238.948 92.3482 239.514 83.992C239.56 83.3023 239.57 82.4647 239.073 81.9221C240.041 83.3562 241.151 84.6898 242.386 85.9029Z" fill="white"/>
<path d="M240.175 73.8631C239.823 74.5006 237.224 76.0836 236.723 76.612C233.92 79.5641 228.804 79.4533 226.241 82.6152C225.339 83.7276 224.871 85.1254 224.526 86.515C224.039 88.4804 223.778 90.6239 224.595 92.4771C225.381 94.2603 227.034 95.4931 228.157 97.086C229.39 98.8349 229.944 100.958 230.476 103.031C230.868 104.561 231.263 106.129 231.111 107.701C230.937 109.489 230.071 111.125 229.56 112.847C229.049 114.569 228.961 116.62 230.143 117.973C231.011 118.967 232.373 119.361 233.674 119.583C235.341 119.833 237.023 119.979 238.708 120.021C240.196 120.086 241.836 120.099 242.98 119.146C243.882 118.394 244.275 117.173 244.326 116C244.376 114.827 244.132 113.664 243.979 112.5C243.82 111.293 243.759 110.075 243.708 108.859C243.48 103.402 243.448 97.9407 243.615 92.4764C243.699 91.3407 243.643 90.199 243.449 89.0769C243.13 87.6151 242.339 86.3088 241.679 84.9657C240.361 82.4361 239.764 79.5931 239.953 76.7473C240.153 73.8227 241.429 71.5946 240.175 73.8631Z" fill="white"/>
<path d="M254.829 74.085C255.366 74.6363 257.19 74.8181 257.873 75.1731C258.515 75.4696 259.185 75.7015 259.874 75.8654C262.365 76.5834 264.734 77.67 266.903 79.0891C267.354 79.3525 267.752 79.6964 268.078 80.1037C268.422 80.6626 268.644 81.2879 268.729 81.9385C269.063 83.5936 269.399 85.2686 269.324 86.9554C269.244 88.7459 268.704 90.48 268.169 92.1905L266.168 98.582C264.675 103.353 263.172 108.171 262.752 113.152C262.519 115.912 262.622 118.691 263.059 121.427C263.101 121.56 263.113 121.7 263.095 121.838C263.078 121.976 263.031 122.109 262.959 122.228C262.827 122.358 262.653 122.438 262.469 122.453C261.503 122.604 260.568 122.112 259.694 121.677C257.019 120.347 254.166 119.414 251.222 118.907C252.372 117.246 253.26 115.418 253.853 113.487C254.19 112.261 254.456 111.017 254.648 109.76L255.579 104.381C255.958 102.415 256.224 100.429 256.377 98.4328C256.448 97.6836 256.404 96.9281 256.248 96.1921C256.033 95.4916 255.749 94.8146 255.398 94.1714C253.864 90.9832 253.144 87.3449 253.748 83.8592C254.012 82.3338 254.525 80.8063 254.311 79.273C254.105 77.7989 254.319 76.6532 253.941 75.1943C252.387 69.2042 253.819 73.0478 254.829 74.085Z" fill="white"/>
<path d="M226.215 87.6559C225.515 89.1059 224.346 90.3412 223.948 91.9009C223.793 92.6298 223.727 93.3747 223.751 94.1195C223.682 95.242 223.793 96.3683 224.08 97.4556C224.302 98.1434 224.663 98.7777 224.924 99.452C225.287 100.394 225.448 101.402 225.398 102.41C225.328 103.806 224.853 105.162 224.816 106.56C224.758 108.759 225.775 110.825 226.768 112.788C227.018 112.169 227.4 111.613 227.888 111.158C228.376 110.702 228.957 110.359 229.591 110.151C230.226 109.944 230.898 109.877 231.56 109.956C232.223 110.035 232.861 110.258 233.428 110.609C233.655 110.33 233.763 109.973 233.728 109.614C233.802 107.064 233.872 104.513 233.941 101.963C234.048 98.0179 234.15 94.0204 233.242 90.1799C232.832 88.446 232.194 86.7187 231.025 85.3737C230.409 84.6656 228.318 82.8002 227.307 83.5936C226.853 83.9503 226.959 84.9215 226.887 85.4133C226.778 86.1906 226.551 86.9469 226.215 87.6559Z" fill="white"/>
<path d="M269.528 83.4774C269.81 84.523 269.93 85.6052 269.885 86.687C269.899 88.8919 269.87 91.0964 269.798 93.3007C269.809 94.4312 269.664 95.5579 269.368 96.6491C269.142 97.3587 268.793 98.0241 268.56 98.7313C267.861 100.851 268.243 103.149 268.303 105.38C268.345 106.102 268.284 106.826 268.12 107.531C267.751 108.914 266.76 110.031 266.068 111.284C265.411 112.474 265.014 113.808 264.23 114.918C263.445 116.028 262.086 116.908 260.77 116.567C259.772 116.309 259.063 115.427 258.573 114.521C257.503 112.529 257.137 110.235 257.534 108.01C258.026 105.302 259.618 102.901 260.192 100.209C260.98 96.5134 259.782 92.6997 259.818 88.9211C259.802 88.3288 259.882 87.7378 260.056 87.1713C260.357 86.3082 261.003 85.6189 261.601 84.9267C262.347 84.0617 263.041 83.1523 263.677 82.2036C264.105 81.5663 264.686 79.9272 265.444 79.7909C267.137 79.4866 269.108 82.1706 269.528 83.4774Z" fill="white"/>
<path d="M217.431 120.315C216.495 120.08 215.53 119.978 214.566 120.011C213.552 120.067 212.562 120.338 211.662 120.806C210.761 121.274 209.971 121.928 209.343 122.725C208.715 123.522 208.264 124.443 208.019 125.427C207.775 126.412 207.744 127.437 207.927 128.435C208.161 129.515 208.543 130.559 209.062 131.535C209.822 133.076 210.733 134.613 212.14 135.6C212.988 136.143 213.9 136.577 214.856 136.892L222.265 139.681C223.355 140.091 224.445 140.502 225.546 140.882C231.075 142.792 236.841 143.937 242.681 144.286C244.458 144.452 246.25 144.362 248.001 144.017C248.425 143.961 248.813 143.752 249.091 143.428C249.232 143.183 249.315 142.908 249.334 142.625L249.79 139.436C249.892 138.992 249.879 138.529 249.751 138.091C249.543 137.556 249.019 137.218 248.52 136.932C243.649 134.137 237.962 132.594 233.862 128.758C232.897 127.855 232.09 126.423 230.917 125.809C229.587 125.114 228.021 124.717 226.647 124.076C223.642 122.674 220.688 121.063 217.431 120.315Z" fill="#2F2E41"/>
<path opacity="0.1" d="M224.828 124.615C227.446 125.435 238.502 131.115 240.397 133.098C240.143 133.19 231.525 128.364 231.266 128.286C228.896 127.636 226.574 126.818 224.319 125.84C223.87 125.632 221.402 124.657 221.514 124.091C221.64 123.452 224.363 124.469 224.828 124.615Z" fill="black"/>
<path d="M257.497 145.94C257.645 145.951 257.793 145.907 257.912 145.818C257.964 145.751 258.003 145.674 258.025 145.592C258.047 145.51 258.053 145.425 258.042 145.341L258.03 140.996C256.779 140.401 255.381 140.21 254.008 140.026L247.603 139.171C247.75 139.191 246.601 141.928 246.777 142.293C247.088 142.937 249.46 143.508 250.13 143.812C252.457 144.869 254.876 146.031 257.497 145.94Z" fill="#A0616A"/>
<path d="M237.401 140.981C236.192 141.173 234.842 141.343 234.059 142.284C233.065 143.477 233.488 145.255 233.962 146.733C233.991 146.924 234.058 147.107 234.159 147.271C234.26 147.436 234.393 147.578 234.55 147.691C234.707 147.803 234.885 147.882 235.073 147.925C235.261 147.967 235.456 147.971 235.646 147.937C236.749 148.007 237.923 148.061 238.886 147.521C239.323 147.232 239.743 146.92 240.145 146.586C240.856 146.113 241.637 145.756 242.459 145.529C243.971 145.053 245.528 144.733 247.105 144.572C247.726 144.544 248.341 144.435 248.935 144.25C249.231 144.154 249.502 143.992 249.725 143.775C249.949 143.558 250.119 143.293 250.224 142.999C250.447 142.21 249.988 141.405 249.547 140.712C249.04 139.805 248.381 138.992 247.599 138.307C246.406 137.38 245.815 138.091 244.613 138.684C242.338 139.806 239.907 140.58 237.401 140.981Z" fill="#A0616A"/>
<path d="M234.241 142.069L226.562 139.801C225.641 139.481 224.678 139.295 223.704 139.248C223.216 139.228 222.73 139.312 222.277 139.495C221.825 139.678 221.417 139.955 221.08 140.309C220.484 141.007 220.314 141.961 220.166 142.867L219.848 144.803C219.636 145.78 219.576 146.783 219.67 147.777C219.721 148.275 219.885 148.754 220.15 149.179C220.414 149.603 220.772 149.962 221.196 150.227C222.258 150.807 223.561 150.524 224.747 150.281C227.142 149.792 229.579 149.531 232.023 149.502C232.943 149.491 233.907 149.502 234.719 149.072C235.19 148.793 235.586 148.403 235.872 147.936C236.159 147.469 236.326 146.939 236.361 146.393C236.512 144.738 235.96 142.577 234.241 142.069Z" fill="#2F2E41"/>
<path d="M260.515 140.093C261.511 139.919 262.389 139.353 263.343 139.02C264.686 138.55 266.141 138.55 267.563 138.555C268.086 138.507 268.612 138.613 269.076 138.858C269.703 139.275 269.863 140.109 269.97 140.854L270.613 145.346C270.785 146.184 270.803 147.047 270.665 147.891C270.477 148.724 269.909 149.526 269.082 149.741C268.078 150.002 267.094 149.361 266.146 148.94C263.776 147.888 261.021 148.157 258.55 147.37C258.314 147.323 258.091 147.226 257.895 147.086C257.699 146.946 257.535 146.766 257.414 146.558C257.329 146.308 257.299 146.044 257.325 145.781C257.368 144.337 257.063 142.366 257.498 140.986C257.889 139.744 259.404 140.093 260.515 140.093Z" fill="#2F2E41"/>
<path d="M276.766 118.507C278.3 118.123 279.89 118.014 281.463 118.187C282.719 118.325 284.013 118.674 284.929 119.542C286.045 120.6 286.404 122.234 286.434 123.771C286.483 126.831 285.467 129.813 283.56 132.207C283.095 132.813 282.541 133.346 281.918 133.787C281.245 134.208 280.528 134.553 279.78 134.817L263.189 141.356C258.824 143.076 254.444 144.801 249.891 145.936C249.767 145.996 249.631 146.03 249.493 146.037C249.355 146.044 249.217 146.024 249.087 145.977C248.957 145.929 248.838 145.857 248.737 145.763C248.635 145.669 248.553 145.556 248.496 145.43C247.043 143.355 245.823 141.126 244.86 138.784C244.814 138.728 244.783 138.662 244.768 138.592C244.753 138.521 244.756 138.448 244.775 138.379C244.795 138.31 244.831 138.246 244.88 138.194C244.929 138.141 244.99 138.101 245.058 138.077L256.793 131.34C257.654 130.891 258.456 130.339 259.182 129.695C259.689 129.204 260.104 128.626 260.408 127.989C260.651 127.482 260.674 126.284 260.985 125.908C261.289 125.541 262.33 125.512 262.81 125.367C263.488 125.16 264.152 124.909 264.798 124.616C267.423 123.443 269.76 121.738 272.277 120.364C273.688 119.557 275.197 118.934 276.766 118.507Z" fill="#2F2E41"/>
<path opacity="0.1" d="M270.113 123.539C268.097 125.052 265.486 126.443 263.488 127.996C262.806 128.526 251.437 134.913 251.276 135.761C253.141 136.075 265.016 127.773 266.715 126.945C268.414 126.117 269.92 124.948 271.413 123.789C271.793 123.493 273.405 122.605 272.313 122.275C271.698 122.089 270.567 123.236 270.113 123.539Z" fill="black"/>
<path d="M256.24 74.2315H238.542C237.823 74.2315 237.133 74.5169 236.625 75.025C236.116 75.533 235.831 76.2221 235.831 76.9406V77.9326H235.639V80.1511H235.831V81.7041H235.639V83.0353H235.831V99.405C235.831 100.123 236.116 100.813 236.625 101.321C237.133 101.829 237.823 102.114 238.542 102.114H256.24C256.959 102.114 257.649 101.829 258.157 101.321C258.665 100.813 258.951 100.123 258.951 99.405V76.9405C258.951 76.2221 258.665 75.533 258.157 75.025C257.649 74.5169 256.959 74.2315 256.24 74.2315Z" fill="#D0CDE1"/>
<path d="M259.053 53.3066L250.077 48.6081L237.68 50.5303L235.116 61.849L241.5 61.6034L243.283 57.4452V61.5352L246.229 61.4219L247.939 54.8013L249.008 61.849L259.48 61.6353L259.053 53.3066Z" fill="#2F2E41"/>
<path d="M228.563 117.041C228.969 117.731 229.546 118.305 230.238 118.707C230.693 118.914 231.188 119.015 231.688 119.002C232.187 118.988 232.676 118.861 233.119 118.63C234.002 118.156 234.726 117.431 235.197 116.547C236.173 114.826 236.375 112.766 236.253 110.792C236.132 108.817 235.71 106.873 235.523 104.903C235.387 103.472 235.376 102.032 235.365 100.594C235.331 100.291 235.395 99.986 235.546 99.722C235.807 99.4629 236.145 99.2945 236.509 99.2418C238.478 98.6573 239.784 96.8133 240.721 94.9868C241.347 93.7673 241.891 92.4342 241.77 91.069C241.65 89.7039 240.668 88.3287 239.303 88.1894C238.179 88.0746 237.14 88.7885 236.329 89.5754C234.282 91.5728 232.966 94.1997 232.593 97.0342C232.415 98.4222 232.466 99.848 232.089 101.196C231.282 104.073 228.758 105.837 227.5 108.426C226.114 111.278 226.879 114.517 228.563 117.041Z" fill="#A0616A"/>
<path d="M265.706 106.049C265.419 106.716 265.001 107.319 264.477 107.823C263.953 108.326 263.333 108.719 262.655 108.979C261.811 109.318 260.88 109.375 260.002 109.141C259.566 109.021 259.164 108.801 258.827 108.5C258.49 108.199 258.227 107.824 258.058 107.405C257.924 106.982 257.85 106.543 257.84 106.1C257.713 104.16 257.762 102.16 258.467 100.348C258.739 99.6492 259.106 98.9863 259.321 98.2677C259.532 97.4378 259.64 96.5851 259.642 95.7288L259.874 90.4348C259.912 90.0505 259.886 89.6624 259.795 89.2869C259.564 88.5209 258.848 88.0231 258.19 87.5663C256.603 86.4631 255.034 85.1757 254.265 83.4029C254 82.8691 253.906 82.2674 253.993 81.6784C254.21 80.6271 255.272 79.9465 256.321 79.7173C257.008 79.5673 257.718 79.5577 258.408 79.6891C259.099 79.8206 259.755 80.0903 260.339 80.4821C260.922 80.8738 261.42 81.3796 261.802 81.9687C262.185 82.5579 262.444 83.2184 262.564 83.9103C262.668 84.5078 262.667 85.118 262.727 85.7214C262.856 87.0012 263.263 88.2348 263.517 89.4957C264.144 92.6016 263.819 95.8122 264.439 98.9176C264.957 101.514 266.91 103.208 265.706 106.049Z" fill="#A0616A"/>
<path d="M247.628 86.1412C248.854 86.1412 249.848 85.1479 249.848 83.9227C249.848 82.6974 248.854 81.7041 247.628 81.7041C246.402 81.7041 245.408 82.6974 245.408 83.9227C245.408 85.1479 246.402 86.1412 247.628 86.1412Z" fill="#CBCBCB"/>
<path d="M6.55018 163.658C10.1673 163.658 13.0996 160.728 13.0996 157.113C13.0996 153.499 10.1673 150.569 6.55018 150.569C2.93302 150.569 0.000732422 153.499 0.000732422 157.113C0.000732422 160.728 2.93302 163.658 6.55018 163.658Z" fill="#2F2E41"/>
<path d="M30.2908 176.542L26.9919 173.338L20.3677 175.394L21.0039 183.058L34.6243 182.426L30.44 176.745L30.2908 176.542Z" fill="#FBBEBE"/>
<path d="M23.0759 176.476C28.9239 176.476 33.6646 171.739 33.6646 165.895C33.6646 160.052 28.9239 155.315 23.0759 155.315C17.228 155.315 12.4872 160.052 12.4872 165.895C12.4872 171.739 17.228 176.476 23.0759 176.476Z" fill="#FBBEBE"/>
<path d="M88.8109 190.122C88.8109 190.122 101.819 212.46 104.915 215.814C106.387 217.464 107.956 219.026 109.613 220.492C109.613 220.492 108.157 225.316 105.839 225.144C104.518 225.064 103.222 224.745 102.015 224.202C102.015 224.202 100.981 221.522 99.176 220.347C97.3714 219.172 82.6278 204.678 82.9724 200.046C83.317 195.413 88.8109 190.122 88.8109 190.122Z" fill="#2F2E41"/>
<path d="M42.4841 222C42.4841 222 56.354 232.757 75.2036 222.649L76.828 221.454C76.828 221.454 74.0866 227.617 73.8323 229.287C73.5374 231.225 66.4002 242.572 65.2355 243.116C64.0708 243.66 63.8141 244.161 63.8141 244.161L68.7567 249.597L70.5842 248.254C70.5842 248.254 77.71 238.165 79.7941 236.32C81.8783 234.475 91.8082 215.443 91.8082 215.443C91.8082 215.443 95.6047 208.272 86.1298 207.733C76.6549 207.194 72.295 209.774 72.295 209.774L55.4795 212.443L42.4841 222Z" fill="#2F2E41"/>
<path d="M109.773 219.435L116.789 224.286C116.789 224.286 125.739 227.088 120.226 228.952C114.712 230.817 100.184 231.491 99.8546 228.919C99.525 226.346 100.428 222.297 101.152 222.518C101.877 222.74 106.908 224.045 109.773 219.435Z" fill="#2F2E41"/>
<path d="M71.205 246.587L72.5035 253.712C72.5035 253.712 76.1957 260.768 71.7626 258.579C67.3295 256.389 58.1963 248.073 59.545 246.33C60.8936 244.587 63.8703 242.696 64.1726 243.264C64.4749 243.832 66.7123 247.636 71.205 246.587Z" fill="#2F2E41"/>
<path d="M57.8282 214.782C57.8282 214.782 48.3999 225.782 42.6758 223.11C36.9516 220.438 13.5332 189.49 16.2072 183.771C18.8812 178.051 19.7778 179.268 19.7778 179.268L31.8694 180.386L28.3904 174.812C28.3904 174.812 30.0148 173.617 31.5627 175.294C33.1106 176.971 39.3252 181.159 41.4902 187.073C43.6552 192.988 50.0113 192.693 50.0113 192.693L57.8282 214.782Z" fill="white"/>
<path d="M95.9028 192.101L79.5592 209.437L64.9184 183.608L78.8369 166.804L95.9028 192.101Z" fill="#3F3D56"/>
<path d="M94.6692 191.914L79.9078 207.148L66.5315 183.673L78.7987 168.24L94.6692 191.914Z" fill="white"/>
<path d="M78.7584 208.775L79.5592 209.437L79.0457 210.44L56.1922 217.237L55.9761 216.454L57.0158 215.38L78.7584 208.775Z" fill="#B3B3B3"/>
<path d="M79.7622 209.288L56.0967 216.681L41.6705 189.443L64.9184 183.608L79.7622 209.288Z" fill="#D0CDE1"/>
<path d="M77.9806 205.593L76.9652 206.34L65.6967 186.789L66.8613 186.245L77.9806 205.593Z" fill="#3F3D56"/>
<path d="M75.651 206.681L65.64 209.663L54.2755 189.557L64.1794 187.279L75.651 206.681Z" fill="#3F3D56"/>
<path d="M47.4481 191.763L49.5208 191.177C49.5208 191.177 61.0798 189.871 61.2486 193.5C61.4173 197.13 47.9693 195.446 47.9693 195.446L46.1761 193.011L47.4481 191.763Z" fill="#FBBEBE"/>
<path d="M57.5865 208.079L60.4715 206.896C60.4715 206.896 69.1799 202.994 66.6817 200.452C64.1836 197.91 56.479 202.325 56.479 202.325L55.004 203.722L57.5865 208.079Z" fill="#FBBEBE"/>
<path d="M55.0154 202.463C55.0154 202.463 59.7129 207.141 58.644 208.24C57.5751 209.338 40.0475 223.791 35.7026 219.167C31.3577 214.542 10.1886 191.324 18.4258 189.333C26.663 187.342 28.8394 191.997 28.8394 191.997L39.7136 210.587L55.0154 202.463Z" fill="white"/>
<path d="M40.95 188.252L48.6663 190.867L48.5403 196.433L40.3795 195.553L40.95 188.252Z" fill="white"/>
<path opacity="0.2" d="M47.9047 205.346L39.5911 210.208L30.0925 195.611L39.2614 207.636L47.9047 205.346Z" fill="black"/>
<path d="M18.4282 175.424C25.3901 175.424 31.0338 169.785 31.0338 162.828C31.0338 155.872 25.3901 150.232 18.4282 150.232C11.4664 150.232 5.82269 155.872 5.82269 162.828C5.82269 169.785 11.4664 175.424 18.4282 175.424Z" fill="#2F2E41"/>
<path d="M86.5389 193.201L77.7125 180.299L81.4541 175.67L90.6255 188.944L86.5389 193.201Z" fill="#CBCBCB"/>
<path d="M86.2902 198.388L72.8529 178.868L73.5157 178.068L86.8902 197.634L86.2902 198.388Z" fill="#E6E6E6"/>
<path d="M84.5587 200.287L71.1213 180.767L71.7841 179.966L85.1586 199.533L84.5587 200.287Z" fill="#E6E6E6"/>
<path d="M83.0836 201.684L69.6462 182.164L70.309 181.364L83.6835 200.93L83.0836 201.684Z" fill="#E6E6E6"/>
<path d="M24.0104 154.419H27.91C29.8844 154.419 31.7779 155.203 33.174 156.598C34.5701 157.993 35.3545 159.885 35.3545 161.858H24.0104V154.419Z" fill="#2F2E41"/>
<path d="M77.7257 149.685L77.0188 149.633C76.9914 150 76.9718 150.369 76.9484 150.738L73.7753 150.632L77.1038 156.864L80.842 150.868L77.6572 150.762C77.68 150.403 77.699 150.043 77.7257 149.685Z" fill="#3F3D56"/>
<path d="M96.3372 98.8826L96.9008 99.3126C97.7462 98.2062 98.6291 97.1016 99.5253 96.0296L98.9811 95.5754C98.0783 96.6554 97.1888 97.768 96.3372 98.8826Z" fill="#3F3D56"/>
<path d="M101.768 92.388L102.292 92.8657C103.232 91.8364 104.209 90.8142 105.194 89.8271L104.692 89.3269C103.699 90.3211 102.716 91.3511 101.768 92.388Z" fill="#3F3D56"/>
<path d="M107.747 86.3974L108.227 86.9194C109.255 85.9756 110.317 85.0433 111.383 84.1484L110.927 83.6059C109.854 84.5074 108.783 85.4468 107.747 86.3974Z" fill="#3F3D56"/>
<path d="M91.4979 105.833L92.0972 106.211C92.8424 105.033 93.6249 103.855 94.4229 102.709L93.841 102.304C93.0369 103.459 92.2486 104.646 91.4979 105.833Z" fill="#3F3D56"/>
<path d="M114.227 80.9572L114.659 81.519C115.766 80.669 116.906 79.8339 118.046 79.0369L117.639 78.4565C116.491 79.2595 115.343 80.1008 114.227 80.9572Z" fill="#3F3D56"/>
<path d="M87.2908 113.186L87.9213 113.51C88.56 112.269 89.2354 111.025 89.9286 109.814L89.3131 109.462C88.6147 110.683 87.9342 111.936 87.2908 113.186Z" fill="#3F3D56"/>
<path d="M80.4522 133.128L79.7657 132.951C79.4154 134.31 79.091 135.697 78.8016 137.071L79.4953 137.217C79.7827 135.853 80.1046 134.477 80.4522 133.128Z" fill="#3F3D56"/>
<path d="M121.158 76.1093L121.538 76.7071C122.714 75.9599 123.922 75.2288 125.13 74.534L124.776 73.92C123.559 74.6201 122.342 75.3566 121.158 76.1093Z" fill="#3F3D56"/>
<path d="M78.7214 141.345L78.0217 141.23C77.7941 142.613 77.5942 144.023 77.4275 145.419L78.1316 145.503C78.2969 144.117 78.4955 142.718 78.7214 141.345Z" fill="#3F3D56"/>
<path d="M83.7519 120.888L84.4086 121.154C84.9343 119.861 85.4967 118.562 86.08 117.293L85.4358 116.997C84.848 118.276 84.2814 119.585 83.7519 120.888Z" fill="#3F3D56"/>
<path d="M80.9121 128.878L81.5903 129.085C81.9992 127.748 82.4435 126.403 82.911 125.088L82.2429 124.851C81.7719 126.176 81.3241 127.531 80.9121 128.878Z" fill="#3F3D56"/>
<path d="M169.118 61.9886C170.508 61.9405 171.924 61.9213 173.324 61.9344L173.33 61.226C171.92 61.2128 170.494 61.232 169.094 61.2804L169.118 61.9886Z" fill="#3F3D56"/>
<path d="M128.486 71.8935L128.812 72.5224C130.051 71.8814 131.318 71.2603 132.58 70.6762L132.282 70.0335C131.011 70.6219 129.734 71.2477 128.486 71.8935Z" fill="#3F3D56"/>
<path d="M185.895 62.8719C187.278 63.0675 188.674 63.2965 190.044 63.5527L190.174 62.8563C188.794 62.5983 187.388 62.3674 185.994 62.1704L185.895 62.8719Z" fill="#3F3D56"/>
<path d="M194.159 64.4168C195.517 64.7337 196.887 65.0858 198.231 65.4634L198.423 64.7812C197.069 64.4009 195.688 64.0463 194.32 63.727L194.159 64.4168Z" fill="#3F3D56"/>
<path d="M202.251 66.6902C203.575 67.1266 204.908 67.5992 206.213 68.0949L206.465 67.4328C205.15 66.9333 203.807 66.4571 202.473 66.0174L202.251 66.6902Z" fill="#3F3D56"/>
<path d="M177.527 62.0631C178.923 62.1363 180.334 62.2414 181.72 62.3753L181.789 61.6703C180.392 61.5352 178.97 61.4294 177.564 61.3557L177.527 62.0631Z" fill="#3F3D56"/>
<path d="M160.654 61.9433L160.74 62.6465C162.122 62.4767 163.529 62.335 164.922 62.2257L164.866 61.5193C163.463 61.6295 162.045 61.7722 160.654 61.9433Z" fill="#3F3D56"/>
<path d="M144.114 65.4876L144.323 66.1643C145.656 65.7521 147.015 65.3643 148.365 65.0116L148.186 64.3263C146.826 64.6814 145.456 65.0722 144.114 65.4876Z" fill="#3F3D56"/>
<path d="M136.155 68.3441L136.424 68.9997C137.713 68.4711 139.03 67.9652 140.337 67.4956L140.098 66.829C138.78 67.3018 137.453 67.8117 136.155 68.3441Z" fill="#3F3D56"/>
<path d="M152.305 63.3474L152.454 64.0403C153.816 63.7485 155.204 63.483 156.582 63.2514L156.464 62.5526C155.077 62.7861 153.677 63.0535 152.305 63.3474Z" fill="#3F3D56"/>
<path d="M216.792 72.4752L212.83 66.6244L211.437 69.4899C211.1 69.3394 210.764 69.1857 210.427 69.04L210.146 69.6903C210.475 69.8326 210.8 69.9817 211.127 70.1275L209.74 72.9794L216.792 72.4752Z" fill="#3F3D56"/>
</svg>
