<svg width="326" height="233" viewBox="0 0 326 233" fill="none" xmlns="http://www.w3.org/2000/svg">
<g clip-path="url(#clip0)">
<path d="M159.884 0L70.4705 48.5131C71.9994 51.1497 72.9844 54.067 73.3672 57.092C73.7499 60.117 73.5226 63.1882 72.6987 66.1236C71.8748 69.0589 70.471 71.7988 68.5706 74.1808C66.6702 76.5628 64.3118 78.5385 61.6352 79.9907C58.9585 81.443 56.0181 82.3423 52.9881 82.6354C49.9581 82.9284 46.9002 82.6093 43.9956 81.6969C41.091 80.7845 38.3988 79.2974 36.0785 77.3236C33.7582 75.3499 31.857 72.9297 30.4876 70.2065L-3.05176e-05 86.748L78.9723 232.791L238.857 146.043L159.884 0Z" fill="#F2F2F2"/>
<path d="M46.6077 113.601L111.047 123.875L105.811 156.821L55.4684 148.794L53.4385 161.569L49.3115 147.813L41.3723 146.547L46.6077 113.601Z" fill="#CBCBCB"/>
<path opacity="0.2" d="M46.6077 113.601L111.047 123.875L105.811 156.821L55.4684 148.794L53.4385 161.569L49.3115 147.813L41.3723 146.547L46.6077 113.601Z" fill="black"/>
<path d="M57.545 127.064L96.4769 133.272L97.0111 129.91L58.0792 123.703L57.545 127.064Z" fill="#F2F2F2"/>
<path d="M56.4766 133.788L95.4084 139.995L95.9427 136.634L57.0108 130.426L56.4766 133.788Z" fill="#F2F2F2"/>
<path d="M55.4081 140.512L94.34 146.719L94.8742 143.357L55.9423 137.15L55.4081 140.512Z" fill="#F2F2F2"/>
<path d="M42.1938 160.898L102.083 134.953L115.304 165.573L68.5151 185.843L73.6413 197.715L62.7931 188.322L55.4144 191.518L42.1938 160.898Z" fill="#CBCBCB"/>
<path d="M58.6336 166.386L94.8166 150.711L93.4675 147.587L57.2846 163.262L58.6336 166.386Z" fill="#F2F2F2"/>
<path d="M61.3317 172.635L97.5146 156.96L96.1656 153.836L59.9826 169.511L61.3317 172.635Z" fill="#F2F2F2"/>
<path d="M64.0287 178.884L100.212 163.209L98.8627 160.084L62.6797 175.76L64.0287 178.884Z" fill="#F2F2F2"/>
<path d="M51.3696 100.985L111.259 75.0399L124.479 105.66L77.6909 125.929L82.8171 137.802L71.9689 128.408L64.5902 131.605L51.3696 100.985Z" fill="#CBCBCB"/>
<path d="M67.8094 106.473L103.992 90.7981L102.643 87.6736L66.4604 103.349L67.8094 106.473Z" fill="#F2F2F2"/>
<path d="M70.5075 112.722L106.69 97.047L105.341 93.9225L69.1584 109.598L70.5075 112.722Z" fill="#F2F2F2"/>
<path d="M73.2047 118.971L109.388 103.296L108.039 100.171L71.8556 115.847L73.2047 118.971Z" fill="#F2F2F2"/>
<path d="M55.9356 26.8782L295.496 37.133C295.496 37.133 333.034 156.773 305.051 208.047L78.1171 233C78.1171 233 125.893 144.125 55.9356 26.8782Z" fill="#3F3D56"/>
<path d="M92.4498 82.596L294.472 79.1777" stroke="#2F2E41" stroke-width="2" stroke-miterlimit="10"/>
<path d="M97.9099 98.3201L301.98 94.2181" stroke="#2F2E41" stroke-width="2" stroke-miterlimit="10"/>
<path d="M60.7867 35.2991L297.415 43.6339" stroke="#2F2E41" stroke-width="2" stroke-miterlimit="10"/>
<path opacity="0.2" d="M238.803 157.799C238.803 158.306 238.799 158.813 238.786 159.314V159.317C238.765 160.556 238.718 161.775 238.64 162.987C238.558 164.287 238.447 165.57 238.306 166.837C236.93 179.218 232.777 190.006 226.949 197.379C223.646 201.563 219.802 204.65 215.618 206.311C214.341 206.821 213.014 207.196 211.659 207.431C210.607 207.613 209.542 207.704 208.475 207.704C203.469 207.704 198.745 205.709 194.585 202.169C186.548 195.343 180.601 182.775 178.755 167.759V167.756C178.443 165.216 178.246 162.612 178.181 159.95C178.161 159.239 178.151 158.522 178.151 157.799C178.151 130.235 191.727 107.89 208.475 107.89C212.441 107.89 216.23 109.143 219.703 111.424C219.805 111.489 219.907 111.557 220.006 111.628C221.917 112.937 223.668 114.465 225.222 116.183C226.222 117.279 227.157 118.433 228.023 119.638C229.133 121.187 230.146 122.803 231.054 124.479C231.815 125.875 232.533 127.345 233.192 128.88V128.884C233.878 130.463 234.507 132.109 235.078 133.82V133.823C236.801 139.059 237.925 144.473 238.429 149.962C238.677 152.515 238.803 155.133 238.803 157.799Z" fill="black"/>
<path d="M74.5177 30.8081C74.7776 31.7844 74.4656 32.9169 73.8222 33.3368C73.1803 33.7557 72.451 33.3064 72.1921 32.3341C71.9333 31.3617 72.2419 30.2314 72.8828 29.8085C73.5252 29.3846 74.2577 29.8318 74.5177 30.8081Z" fill="#CBCBCB"/>
<path d="M79.9696 30.7226C80.2295 31.6989 79.9176 32.8314 79.2741 33.2513C78.6322 33.6703 77.9029 33.2209 77.644 32.2486C77.3852 31.2762 77.6938 30.1459 78.3347 29.723C78.9771 29.2992 79.7096 29.7463 79.9696 30.7226Z" fill="#CBCBCB"/>
<path d="M69.0657 30.8936C69.3256 31.8699 69.0137 33.0024 68.3703 33.4223C67.7283 33.8412 66.9991 33.3919 66.7402 32.4195C66.4813 31.4472 66.79 30.3168 67.4309 29.8939C68.0733 29.4701 68.8058 29.9173 69.0657 30.8936Z" fill="#CBCBCB"/>
<path d="M239.259 129.022L241.023 134.28L242.933 134.428L241.216 121.321C241.854 113.042 238.404 105.739 230.14 105.1H230.14C227.368 104.886 224.626 105.783 222.515 107.594C220.404 109.406 219.098 111.983 218.885 114.758L217.91 127.407C217.807 128.748 218.239 130.075 219.113 131.096C219.986 132.118 221.229 132.75 222.567 132.853L237.385 133.999L239.259 129.022Z" fill="#2F2E41"/>
<path d="M241.122 158.968C241.122 158.968 242.69 163.233 245.38 163.906C248.069 164.58 268.012 169.293 268.012 169.293C268.012 169.293 285.491 169.742 280.113 173.558C274.735 177.374 265.995 173.558 265.995 173.558C265.995 173.558 240.45 170.416 238.433 167.049C237.105 164.757 235.981 162.354 235.072 159.866L241.122 158.968Z" fill="#FBBEBE"/>
<path d="M232.607 140.113C232.607 140.113 245.379 160.988 243.811 161.437C242.242 161.886 227.677 166.6 227.005 164.804C226.332 163.008 226.332 154.703 226.332 154.703L232.607 140.113Z" fill="#FF6584"/>
<path opacity="0.15" d="M232.607 140.113C232.607 140.113 245.379 160.988 243.811 161.437C242.242 161.886 227.677 166.6 227.005 164.804C226.332 163.008 226.332 154.703 226.332 154.703L232.607 140.113Z" fill="black"/>
<path d="M197.515 133.204L178.556 159.609C178.556 159.609 165.949 170.888 170.674 172.243C175.399 173.597 182.898 162.675 182.898 162.675L204.75 135.033L197.515 133.204Z" fill="#FBBEBE"/>
<path d="M236.416 123.503C236.416 123.503 230.814 132.033 231.262 134.053C231.262 134.053 230.814 135.4 231.486 136.297C232.159 137.195 231.934 142.582 231.934 142.582L229.694 145.725L226.78 136.073L225.436 125.748C225.436 125.748 228.461 121.595 228.013 119.575C227.565 117.555 236.416 123.503 236.416 123.503Z" fill="#FBBEBE"/>
<path d="M226.949 197.379C223.646 201.563 219.802 204.65 215.618 206.311C214.341 206.821 213.014 207.196 211.659 207.431C212.376 191.496 213.202 177.284 213.783 176.028C215.129 173.111 218.714 171.987 218.714 171.987C218.714 171.987 219.068 172.937 219.659 174.588C221.192 178.891 224.325 187.96 226.949 197.379Z" fill="#FF6584"/>
<path opacity="0.15" d="M226.949 197.379C223.646 201.563 219.802 204.65 215.618 206.311C214.341 206.821 213.014 207.196 211.659 207.431C212.376 191.496 213.202 177.284 213.783 176.028C215.129 173.111 218.714 171.987 218.714 171.987C218.714 171.987 219.068 172.937 219.659 174.588C221.192 178.891 224.325 187.96 226.949 197.379Z" fill="black"/>
<path d="M233.503 124.85C238.082 124.85 241.794 121.132 241.794 116.545C241.794 111.958 238.082 108.24 233.503 108.24C228.924 108.24 225.212 111.958 225.212 116.545C225.212 121.132 228.924 124.85 233.503 124.85Z" fill="#FBBEBE"/>
<path d="M229.919 154.929C228.369 156.406 227.231 157.496 226.395 158.326C224.696 160.008 224.24 160.611 224.091 161.213C223.866 162.112 222.748 162.112 222.748 162.112L219.659 174.588L216.247 188.371C216.247 188.371 216.026 196.031 215.618 206.311C214.341 206.821 213.014 207.196 211.659 207.431C210.607 207.613 209.542 207.704 208.475 207.704C203.469 207.704 198.745 205.709 194.585 202.169C194.643 189.022 194.511 175.579 194.511 175.579C194.511 175.579 190.925 169.744 203.252 158.296C203.252 158.296 205.195 152.618 207.207 146.916C209.229 141.169 211.319 135.399 211.544 135.399C211.693 135.399 212.764 134.027 214.123 132.199C215.316 130.599 216.733 128.645 217.943 126.954C219.503 124.789 220.73 123.056 220.73 123.056C220.73 123.056 224.41 123.056 225.987 124.938C226.246 125.24 226.441 125.593 226.558 125.973C226.939 127.216 227.809 130.249 228.682 133.326C229.855 137.469 231.037 141.683 231.037 141.683L231.639 136.618C231.639 136.618 233.504 139.215 233.504 141.234C233.504 141.343 233.508 141.466 233.511 141.605C233.61 144.025 234.368 150.681 229.919 154.929Z" fill="#FF6584"/>
<path d="M223.419 124.85L220.73 123.054C220.73 123.054 209.526 129.788 201.683 130.237C193.84 130.686 194.064 135.175 197.201 138.318C200.338 141.46 212.663 152.234 213.111 149.541C213.559 146.847 223.419 124.85 223.419 124.85Z" fill="#FF6584"/>
<path d="M238.191 106.179C236.389 105.57 232.029 105.246 231.392 105.197C229.855 105.078 228.31 105.264 226.845 105.743C225.38 106.222 224.024 106.986 222.854 107.99C221.683 108.994 220.722 110.22 220.024 111.596C219.327 112.973 218.907 114.473 218.788 116.012L213.115 132.122L221.689 132.785L223.751 126.799L225.54 133.083L229.856 133.417L230.51 129.774L231.688 133.558L236.495 133.93C233.523 125.491 232.181 117.904 237.266 113.679C240.426 114.362 243.187 113.713 243.759 112.012C244.419 110.052 241.926 107.441 238.191 106.179Z" fill="#2F2E41"/>
<path d="M260.75 125.258H326V158.619H275.023V171.555L268.789 158.619H260.75V125.258Z" fill="#CBCBCB"/>
<path d="M273.664 136.833H313.086V133.428H273.664V136.833Z" fill="#F2F2F2"/>
<path d="M273.664 143.641H313.086V140.237H273.664V143.641Z" fill="#F2F2F2"/>
<path d="M273.664 150.449H313.086V147.045H273.664V150.449Z" fill="#F2F2F2"/>
<path opacity="0.2" d="M206.804 53.0296L190.388 48.6368L186.002 65.0809L202.419 69.4738L206.804 53.0296Z" fill="#CBCBCB"/>
<path d="M200.861 71.0186C203.63 71.0186 205.875 68.7697 205.875 65.9956C205.875 63.2214 203.63 60.9725 200.861 60.9725C198.091 60.9725 195.846 63.2214 195.846 65.9956C195.846 68.7697 198.091 71.0186 200.861 71.0186Z" stroke="#3F3D56" stroke-width="2" stroke-miterlimit="10"/>
</g>
<defs>
<clipPath id="clip0">
<rect width="326" height="233" fill="white"/>
</clipPath>
</defs>
</svg>
